<?xml version="1.0" standalone="no"?>
<!DOCTYPE svg PUBLIC "-//W3C//DTD SVG 20010904//EN"
 "http://www.w3.org/TR/2001/REC-SVG-20010904/DTD/svg10.dtd">
<svg version="1.0" xmlns="http://www.w3.org/2000/svg"
 width="512.000000pt" height="512.000000pt" viewBox="0 0 512.000000 512.000000"
 preserveAspectRatio="xMidYMid meet">

<g transform="translate(0.000000,512.000000) scale(0.100000,-0.100000)"
fill="#000000" stroke="none">
<path d="M2175 5113 c-84 -7 -172 -25 -215 -44 -55 -24 -115 -80 -142 -134
-31 -58 -1556 -4455 -1579 -4550 -24 -101 -24 -178 0 -230 60 -130 192 -163
611 -152 233 7 314 18 388 56 50 25 95 73 118 123 10 22 84 243 164 492 l146
451 214 5 c137 3 222 9 235 17 20 11 36 37 49 76 5 16 18 17 127 15 l121 -3
12 -35 c8 -25 22 -40 49 -54 34 -16 42 -17 73 -5 33 13 55 39 68 82 5 16 18
17 128 15 l122 -3 8 -32 c16 -62 37 -67 277 -73 l215 -5 151 -460 c82 -253
156 -475 164 -494 22 -51 58 -89 110 -115 89 -46 142 -51 511 -51 301 0 353 2
410 18 169 46 219 148 172 348 -29 118 -1556 4500 -1595 4572 -55 104 -149
149 -351 167 -101 9 -666 11 -761 3z m605 -2188 c148 -450 269 -820 267 -822
-2 -2 -247 -2 -543 -1 l-540 3 270 822 c148 453 271 821 272 820 2 -2 125
-371 274 -822z"/>
</g>
</svg>
